# xmcd
#
# Track frame offsets:
#	150
#	15775
#	32262
#	56674
#	79071
#	96803
#	126307
#	147870
#	169924
#	183174
#	205444
#	226000
#	242907
#	254517
#	275806
#
# Disc length: 3894 seconds
#
# Revision: 1
# Processed by: cddbd v1.5.2PL0 Copyright (c) Steve Scherf et al.
# Submitted via: audiograbber 1.83.01
#
DISCID=c80f340f
DTITLE=Steven Jaymes - Hemingway's Cats
DYEAR=2004
DGENRE=Blues
TTITLE0=Hemingway's Cats
TTITLE1=Seven
TTITLE2=Higher
TTITLE3=A Little Love
TTITLE4=Bird On A Wire
TTITLE5=Emily
TTITLE6=Cry
TTITLE7=Believe
TTITLE8=Lead You Home
TTITLE9=Manhattan
TTITLE10=Expectation
TTITLE11=Never More Alive
TTITLE12=Movin' On
TTITLE13=Candy
TTITLE14=Hemingway's Cats Live
EXTD=
EXTT0=
EXTT1=
EXTT2=
EXTT3=
EXTT4=
EXTT5=
EXTT6=
EXTT7=
EXTT8=
EXTT9=
EXTT10=
EXTT11=
EXTT12=
EXTT13=
EXTT14=
PLAYORDER=
